Coordinates
version=1
nRows=26
nColumns=27
inDegrees=yes

Units are S.I. units (second, meters, Newtons, ...)
If the header above contains a line with 'inDegrees', this indicates whether rotational values are in degrees (yes) or radians (no).

endheader
time	pelvis_rotation	pelvis_tilt	pelvis_list	pelvis_tx	pelvis_ty	pelvis_tz	hip_flexion_r	hip_adduction_r	hip_rotation_r	knee_angle_r	knee_rotation_r	knee_adduction_r	knee_angle_r_beta	ankle_angle_r	subtalar_angle_r	mtp_angle_r	hip_flexion_l	hip_adduction_l	hip_rotation_l	knee_angle_l	knee_rotation_l	knee_adduction_l	knee_angle_l_beta	ankle_angle_l	subtalar_angle_l	mtp_angle_l
      4.19000000	      4.77295005	    -26.63531145	      4.66227738	     -0.01437468	      0.64598477	     -1.14268794	     89.46729310	    -44.29831706	      0.43656789	     79.19032232	      0.00000000	      9.90442031	      1.38213186	      9.85566025	      0.00000000	      0.00000000	     85.10052369	    -31.50664170	     -0.95190128	     72.10752219	      0.00000000	     -9.91356415	      1.25851368	      6.99461413	      0.00000000	      0.00000000
      4.19500000	      4.90398928	    -26.67772996	      4.79923936	     -0.01462341	      0.64450989	     -1.14268674	     89.91618268	    -44.47538161	      0.75821438	     79.47188290	      0.00000000	      9.90533881	      1.38704602	      9.92703221	      0.00000000	      0.00000000	     85.33181081	    -31.44759101	     -0.94177757	     72.32278017	      0.00000000	     -9.91430303	      1.26227064	      7.04325344	      0.00000000	      0.00000000
      4.20000000	      4.96296238	    -26.65816699	      4.96167466	     -0.01484668	      0.64284479	     -1.14269048	     90.41891335	    -44.59536501	      1.20576785	     79.80122081	      0.00000000	      9.90627034	      1.39279405	      9.94979068	      0.00000000	      0.00000000	     85.48815484	    -31.47950043	     -1.01823458	     72.59264320	      0.00000000	     -9.91529706	      1.26698064	      7.09971759	      0.00000000	      0.00000000
      4.20500000	      4.95186932	    -26.72040984	      4.85650570	     -0.01510346	      0.64133329	     -1.14261341	     90.65377301	    -44.60606143	      1.25924186	     80.04662503	      0.00000000	      9.90688779	      1.39707716	     10.03933877	      0.00000000	      0.00000000	     85.91034320	    -31.60400186	     -0.78860593	     72.88766480	      0.00000000	     -9.91624286	      1.27212973	      7.08856692	      0.00000000	      0.00000000
      4.21000000	      5.00430064	    -26.71640782	      4.81643276	     -0.01531239	      0.63973596	     -1.14254678	     90.89630654	    -44.71597452	      1.36424427	     80.31948344	      0.00000000	      9.90774026	      1.40183944	     10.10407567	      0.00000000	      0.00000000	     86.24219311	    -31.65366874	     -0.59133162	     73.18235062	      0.00000000	     -9.91726543	      1.27727297	      7.13846734	      0.00000000	      0.00000000
      4.21500000	      5.01034097	    -26.83235573	      4.82812165	     -0.01559544	      0.63826779	     -1.14249268	     91.32852305	    -44.72303014	      1.60920224	     80.58382692	      0.00000000	      9.90817742	      1.40645310	     10.15604645	      0.00000000	      0.00000000	     86.62110577	    -31.74754027	     -0.50744536	     73.44328849	      0.00000000	     -9.91793471	      1.28182720	      7.12092392	      0.00000000	      0.00000000
      4.22000000	      5.00478410	    -26.90617920	      4.72466950	     -0.01582835	      0.63678120	     -1.14239610	     91.57463185	    -44.74398445	      1.65344728	     80.82314420	      0.00000000	      9.90873118	      1.41062998	     10.20789899	      0.00000000	      0.00000000	     87.04776966	    -31.86301631	     -0.27532756	     73.73325024	      0.00000000	     -9.91880056	      1.28688798	      7.13497731	      0.00000000	      0.00000000
      4.22500000	      5.01604732	    -26.88497482	      5.02331737	     -0.01603069	      0.63525923	     -1.14236106	     92.23899422	    -44.77166629	      2.35703909	     81.15483926	      0.00000000	      9.90931091	      1.41641915	     10.27906219	      0.00000000	      0.00000000	     87.03525777	    -31.93644556	     -0.58202885	     73.93149827	      0.00000000	     -9.91961256	      1.29034807	      7.13769477	      0.00000000	      0.00000000
      4.23000000	      5.13188841	    -27.00252170	      4.79777090	     -0.01625279	      0.63387524	     -1.14224547	     92.29411827	    -44.92122994	      2.09407602	     81.35020403	      0.00000000	      9.91000385	      1.41982891	     10.32841169	      0.00000000	      0.00000000	     87.65374249	    -31.91608020	     -0.08740706	     74.22117371	      0.00000000	     -9.92017921	      1.29540386	      7.13094497	      0.00000000	      0.00000000
      4.23500000	      5.08779646	    -26.98971827	      5.02941515	     -0.01644317	      0.63228725	     -1.14219628	     92.92321927	    -44.89155354	      2.74017854	     81.67983447	      0.00000000	      9.91045821	      1.42558204	     10.39094233	      0.00000000	      0.00000000	     87.69531042	    -32.06646707	     -0.34418071	     74.45486513	      0.00000000	     -9.92104664	      1.29948254	      7.15366523	      0.00000000	      0.00000000
      4.24000000	      5.19670877	    -27.06813040	      4.74268202	     -0.01660301	      0.63080666	     -1.14208032	     92.88468746	    -45.05920819	      2.39149128	     81.89303930	      0.00000000	      9.91120722	      1.42930317	     10.49063549	      0.00000000	      0.00000000	     88.33967834	    -32.05853743	      0.23090463	     74.78588603	      0.00000000	     -9.92175690	      1.30525995	      7.19962399	      0.00000000	      0.00000000
      4.24500000	      5.15674787	    -27.10018458	      5.04322508	     -0.01682757	      0.62933029	     -1.14203597	     93.62480160	    -45.00052082	      3.14675670	     82.20827016	      0.00000000	      9.91160670	      1.43480499	     10.51302572	      0.00000000	      0.00000000	     88.34873430	    -32.19216304	     -0.11433133	     74.96833960	      0.00000000	     -9.92249623	      1.30844436	      7.16563046	      0.00000000	      0.00000000
      4.25000000	      5.23274128	    -27.20725235	      4.84035485	     -0.01703304	      0.62788102	     -1.14192208	     93.72325782	    -45.11169481	      2.95960218	     82.41426697	      0.00000000	      9.91216325	      1.43840031	     10.59221511	      0.00000000	      0.00000000	     88.92523167	    -32.20881038	      0.32690360	     75.26353792	      0.00000000	     -9.92310869	      1.31359654	      7.19650881	      0.00000000	      0.00000000
      4.25500000	      5.19952245	    -27.21401305	      5.07311976	     -0.01722857	      0.62628691	     -1.14186298	     94.37086599	    -45.07889812	      3.60187995	     82.74400541	      0.00000000	      9.91261425	      1.44415533	     10.63964476	      0.00000000	      0.00000000	     88.99190764	    -32.34275523	      0.09409578	     75.49296611	      0.00000000	     -9.92383098	      1.31760082	      7.21525215	      0.00000000	      0.00000000
      4.26000000	      5.25117412	    -27.30319579	      4.84028755	     -0.01742012	      0.62479354	     -1.14175059	     94.44098263	    -45.17584514	      3.39450366	     82.95693259	      0.00000000	      9.91311667	      1.44787161	     10.67813333	      0.00000000	      0.00000000	     89.57636954	    -32.37225385	      0.57585502	     75.80146426	      0.00000000	     -9.92441052	      1.32298513	      7.23469264	      0.00000000	      0.00000000
      4.26500000	      5.27534806	    -27.36029240	      4.78411048	     -0.01759470	      0.62323425	     -1.14165028	     94.72826850	    -45.22932803	      3.50539158	     83.21780725	      0.00000000	      9.91366935	      1.45242473	     10.75004581	      0.00000000	      0.00000000	     89.96937844	    -32.44088969	      0.78865039	     76.08246884	      0.00000000	     -9.92506124	      1.32788958	      7.24921574	      0.00000000	      0.00000000
      4.27000000	      5.29388236	    -27.40544372	      4.84285096	     -0.01778582	      0.62162429	     -1.14157113	     95.15459507	    -45.25866100	      3.82052522	     83.50660969	      0.00000000	      9.91425355	      1.45746529	     10.86158373	      0.00000000	      0.00000000	     90.25417897	    -32.52026924	      0.83985132	     76.34743150	      0.00000000	     -9.92574294	      1.33251406	      7.26509905	      0.00000000	      0.00000000
      4.27500000	      5.31005203	    -27.35044351	      5.12865456	     -0.01792972	      0.61998190	     -1.14154435	     95.78823792	    -45.27832941	      4.51599446	     83.83906919	      0.00000000	      9.91482683	      1.46326780	     10.91264765	      0.00000000	      0.00000000	     90.22416408	    -32.59266640	      0.57702689	     76.55943486	      0.00000000	     -9.92633980	      1.33621421	      7.29456556	      0.00000000	      0.00000000
      4.28000000	      5.34560189	    -27.45051631	      4.93961900	     -0.01813232	      0.61837780	     -1.14142965	     95.94680664	    -45.34918988	      4.41151138	     84.07575841	      0.00000000	      9.91536414	      1.46739881	     10.99585206	      0.00000000	      0.00000000	     90.79521909	    -32.63212557	      1.00823148	     76.87184167	      0.00000000	     -9.92701125	      1.34166674	      7.29070196	      0.00000000	      0.00000000
      4.28500000	      5.37160065	    -27.43199392	      4.91420800	     -0.01826829	      0.61675475	     -1.14133538	     96.19267095	    -45.40569111	      4.57456143	     84.34494243	      0.00000000	      9.91592702	      1.47209695	     11.10409255	      0.00000000	      0.00000000	     91.08423013	    -32.68810296	      1.18544346	     77.14271401	      0.00000000	     -9.92755302	      1.34639435	      7.30178717	      0.00000000	      0.00000000
      4.29000000	      5.36222176	    -27.48205608	      4.84487634	     -0.01845753	      0.61500778	     -1.14125258	     96.50743978	    -45.42731420	      4.71854336	     84.62820537	      0.00000000	      9.91635820	      1.47704082	     11.14918577	      0.00000000	      0.00000000	     91.49997065	    -32.77524430	      1.43357808	     77.45749439	      0.00000000	     -9.92811905	      1.35188831	      7.33594995	      0.00000000	      0.00000000
      4.29500000	      5.37914804	    -27.50035710	      4.86371120	     -0.01863361	      0.61327654	     -1.14117911	     96.88348069	    -45.45998896	      4.99013578	     84.92254435	      0.00000000	      9.91687399	      1.48217801	     11.22731775	      0.00000000	      0.00000000	     91.80779877	    -32.83411944	      1.57380474	     77.74101907	      0.00000000	     -9.92868182	      1.35683675	      7.33704092	      0.00000000	      0.00000000
      4.30000000	      5.34237731	    -27.36319401	      5.16516811	     -0.01871215	      0.61136836	     -1.14117348	     97.51798271	    -45.42465686	      5.78282575	     85.29711190	      0.00000000	      9.91738087	      1.48871545	     11.30451922	      0.00000000	      0.00000000	     91.68591888	    -32.96716883	      1.27904940	     77.99888280	      0.00000000	     -9.92940400	      1.36133732	      7.47356386	      0.00000000	      0.00000000
      4.30500000	      5.33929880	    -27.36118624	      5.16441172	     -0.01884787	      0.60961845	     -1.14110540	     97.84934179	    -45.43648239	      6.03597348	     85.58986704	      0.00000000	      9.91795773	      1.49382499	     11.39378883	      0.00000000	      0.00000000	     91.98232521	    -33.04658633	      1.42782538	     78.29219664	      0.00000000	     -9.93004024	      1.36645661	      7.48817324	      0.00000000	      0.00000000
      4.31000000	      5.41286707	    -27.40884443	      4.70521762	     -0.01893782	      0.60785131	     -1.14097573	     97.61431996	    -45.62332527	      5.47239601	     85.80580441	      0.00000000	      9.91845111	      1.49759380	     11.50068910	      0.00000000	      0.00000000	     92.77600429	    -33.00723247	      2.28311306	     78.68074009	      0.00000000	     -9.93055206	      1.37323797	      7.53556925	      0.00000000	      0.00000000
      4.31500000	      5.34816193	    -27.27632616	      5.15101107	     -0.01900745	      0.60596421	     -1.14098411	     98.44031871	    -45.50767977	      6.52659810	     86.19195541	      0.00000000	      9.91885795	      1.50433341	     11.57767098	      0.00000000	      0.00000000	     92.51726379	    -33.18227926	      1.77363973	     78.89752370	      0.00000000	     -9.93107432	      1.37702156	      7.57785619	      0.00000000	      0.00000000
